<svg width="39" height="39" viewBox="0 0 39 39" fill="none" xmlns="http://www.w3.org/2000/svg">
<path d="M21.3281 35.75V23.5302C21.3281 23.2629 21.2211 23.0066 21.0308 22.8187L6.5777 8.54406C5.94596 7.92012 4.875 8.36763 4.875 9.25554V34.75C4.875 35.3023 5.32272 35.75 5.875 35.75H21.3281ZM21.3281 35.75H33.125C33.6773 35.75 34.125 35.3023 34.125 34.75V4.25C34.125 3.69772 33.6773 3.25 33.125 3.25H22.3281C21.7758 3.25 21.3281 3.69772 21.3281 4.25V35.75ZM29.0063 8.66613H34.125M29.0063 14.0823H34.125M29.0063 19.5H34.125M29.0063 24.9161H34.125M29.0063 30.3323H34.125" stroke="#6B6B6B" stroke-width="2" stroke-linecap="square"/>
</svg>
